millimetreA Black condensed 02.ufo
<glyph name="one" format="1">
  <advance width="250"/>
  <unicode hex="0031"/>
  <outline>
    <contour>
      <point x="50" y="0" type="line"/>
      <point x="200" y="0" type="line"/>
      <point x="200" y="700" type="line"/>
      <point x="50" y="700" type="line"/>
    </contour>
    <contour>
      <point x="90" y="700" type="line"/>
      <point x="20" y="700" type="line"/>
      <point x="0" y="550" type="line"/>
      <point x="100" y="550" type="line"/>
    </contour>
  </outline>
</glyph>
<glyph name="seven" format="1">
  <advance width="600"/>
  <unicode hex="0037"/>
  <outline>
    <contour>
      <point x="100" y="200" type="line"/>
      <point x="500" y="200" type="line"/>
      <point x="500" y="350" type="line"/>
      <point x="100" y="350" type="line"/>
    </contour>
    <contour>
      <point x="375" y="0" type="line"/>
      <point x="375" y="250" type="line"/>
      <point x="225" y="250" type="line"/>
      <point x="225" y="0" type="line"/>
    </contour>
    <contour>
      <point x="375" y="350" type="line"/>
      <point x="385" y="445"/>
      <point x="420" y="490"/>
      <point x="550" y="580" type="curve"/>
      <point x="550" y="700" type="line"/>
      <point x="50" y="700" type="line"/>
      <point x="50" y="550" type="line"/>
      <point x="235" y="550" type="line"/>
      <point x="315" y="555" type="line"/>
      <point x="245" y="495"/>
      <point x="230" y="430"/>
      <point x="225" y="350" type="curve"/>
    </contour>
  </outline>
</glyph>
<glyph name="eight" format="1">
  <advance width="600"/>
  <unicode hex="0038"/>
  <outline>
    <contour>
      <point x="550" y="245" type="curve"/>
      <point x="550" y="310" type="line"/>
      <point x="550" y="410"/>
      <point x="480" y="450"/>
      <point x="300" y="450" type="curve"/>
      <point x="300" y="500" type="line"/>
      <point x="300" y="360" type="line"/>
      <point x="380" y="360"/>
      <point x="400" y="345"/>
      <point x="400" y="300" type="curve"/>
      <point x="400" y="240" type="line"/>
      <point x="400" y="170"/>
      <point x="380" y="150"/>
      <point x="300" y="150" type="curve"/>
      <point x="300" y="0" type="line"/>
      <point x="330" y="0" type="line" smooth="yes"/>
      <point x="470" y="0"/>
      <point x="550" y="70"/>
    </contour>
    <contour>
      <point x="300" y="710" type="curve"/>
      <point x="120" y="710"/>
      <point x="50" y="655"/>
      <point x="50" y="555" type="curve"/>
      <point x="50" y="545" type="line"/>
      <point x="50" y="440"/>
      <point x="120" y="410"/>
      <point x="300" y="410" type="curve"/>
      <point x="300" y="500" type="line"/>
      <point x="220" y="500"/>
      <point x="200" y="505"/>
      <point x="200" y="530" type="curve"/>
      <point x="200" y="555"/>
      <point x="220" y="560"/>
      <point x="300" y="560" type="curve"/>
      <point x="380" y="560"/>
      <point x="400" y="555"/>
      <point x="400" y="530" type="curve"/>
      <point x="400" y="505"/>
      <point x="380" y="500"/>
      <point x="300" y="500" type="curve"/>
      <point x="300" y="410" type="line"/>
      <point x="480" y="410"/>
      <point x="550" y="440"/>
      <point x="550" y="545" type="curve"/>
      <point x="550" y="555" type="line"/>
      <point x="550" y="655"/>
      <point x="480" y="710"/>
    </contour>
    <contour>
      <point x="50" y="245" type="line"/>
      <point x="50" y="70"/>
      <point x="130" y="0"/>
      <point x="270" y="0" type="curve" smooth="yes"/>
      <point x="300" y="0" type="line"/>
      <point x="300" y="150" type="line"/>
      <point x="220" y="150"/>
      <point x="200" y="170"/>
      <point x="200" y="240" type="curve"/>
      <point x="200" y="300" type="line"/>
      <point x="200" y="345"/>
      <point x="220" y="360"/>
      <point x="300" y="360" type="curve"/>
      <point x="300" y="500" type="line"/>
      <point x="300" y="450" type="line"/>
      <point x="120" y="450"/>
      <point x="50" y="410"/>
      <point x="50" y="310" type="curve"/>
    </contour>
  </outline>
</glyph>
<glyph name="less" format="1">
  <advance width="400"/>
  <unicode hex="003C"/>
  <outline>
    <contour>
      <point x="10" y="265" type="line"/>
      <point x="10" y="240" type="line"/>
      <point x="125" y="255" type="line"/>
      <point x="160" y="275" type="line"/>
      <point x="375" y="485" type="line"/>
      <point x="375" y="500" type="line"/>
      <point x="245" y="500" type="line"/>
    </contour>
    <contour>
      <point x="10" y="235" type="line"/>
      <point x="245" y="0" type="line"/>
      <point x="375" y="0" type="line"/>
      <point x="375" y="15" type="line"/>
      <point x="160" y="225" type="line"/>
      <point x="125" y="245" type="line"/>
      <point x="125" y="270" type="line"/>
      <point x="10" y="260" type="line"/>
    </contour>
  </outline>
</glyph>
<glyph name="C" format="1">
  <advance width="600"/>
  <unicode hex="0043"/>
  <outline>
    <contour>
      <point x="330" y="0" type="line" smooth="yes"/>
      <point x="470" y="0"/>
      <point x="550" y="70"/>
      <point x="550" y="220" type="curve"/>
      <point x="550" y="300" type="line"/>
      <point x="400" y="300" type="line"/>
      <point x="400" y="240" type="line" smooth="yes"/>
      <point x="400" y="170"/>
      <point x="370" y="150"/>
      <point x="300" y="150" type="curve"/>
      <point x="300" y="0" type="line"/>
    </contour>
    <contour>
      <point x="270" y="0" type="curve" smooth="yes"/>
      <point x="300" y="0" type="line"/>
      <point x="300" y="150" type="line"/>
      <point x="220" y="150"/>
      <point x="200" y="170"/>
      <point x="200" y="240" type="curve" smooth="yes"/>
      <point x="200" y="350" type="line"/>
      <point x="50" y="350" type="line"/>
      <point x="50" y="245" type="line"/>
      <point x="50" y="70"/>
      <point x="130" y="0"/>
    </contour>
    <contour>
      <point x="330" y="700" type="curve" smooth="yes"/>
      <point x="300" y="700" type="line"/>
      <point x="300" y="550" type="line"/>
      <point x="370" y="550"/>
      <point x="400" y="530"/>
      <point x="400" y="460" type="curve" smooth="yes"/>
      <point x="400" y="400" type="line"/>
      <point x="550" y="400" type="line"/>
      <point x="550" y="480" type="line"/>
      <point x="550" y="630"/>
      <point x="470" y="700"/>
    </contour>
    <contour>
      <point x="270" y="700" type="line" smooth="yes"/>
      <point x="130" y="700"/>
      <point x="50" y="630"/>
      <point x="50" y="455" type="curve"/>
      <point x="50" y="350" type="line"/>
      <point x="200" y="350" type="line"/>
      <point x="200" y="460" type="line" smooth="yes"/>
      <point x="200" y="530"/>
      <point x="220" y="550"/>
      <point x="300" y="550" type="curve"/>
      <point x="300" y="700" type="line"/>
    </contour>
  </outline>
</glyph>
<glyph name="E" format="1">
  <advance width="600"/>
  <unicode hex="0045"/>
  <outline>
    <contour>
      <point x="50" y="0" type="line"/>
      <point x="200" y="0" type="line"/>
      <point x="200" y="700" type="line"/>
      <point x="50" y="700" type="line"/>
    </contour>
    <contour>
      <point x="100" y="0" type="line"/>
      <point x="550" y="0" type="line"/>
      <point x="550" y="150" type="line"/>
      <point x="100" y="150" type="line"/>
    </contour>
    <contour>
      <point x="100" y="550" type="line"/>
      <point x="550" y="550" type="line"/>
      <point x="550" y="700" type="line"/>
      <point x="100" y="700" type="line"/>
    </contour>
    <contour>
      <point x="100" y="300" type="line"/>
      <point x="500" y="300" type="line"/>
      <point x="500" y="450" type="line"/>
      <point x="100" y="450" type="line"/>
    </contour>
    <contour>
      <point x="315.0" y="650.0" type="move" name="top"/>
    </contour>
  </outline>
</glyph>
<glyph name="F" format="1">
  <advance width="600"/>
  <unicode hex="0046"/>
  <outline>
    <contour>
      <point x="50" y="0" type="line"/>
      <point x="200" y="0" type="line"/>
      <point x="200" y="700" type="line"/>
      <point x="50" y="700" type="line"/>
    </contour>
    <contour>
      <point x="100" y="550" type="line"/>
      <point x="550" y="550" type="line"/>
      <point x="550" y="700" type="line"/>
      <point x="100" y="700" type="line"/>
    </contour>
    <contour>
      <point x="100" y="200" type="line"/>
      <point x="500" y="200" type="line"/>
      <point x="500" y="350" type="line"/>
      <point x="100" y="350" type="line"/>
    </contour>
  </outline>
</glyph>
<glyph name="J" format="1">
  <advance width="500"/>
  <unicode hex="004A"/>
  <outline>
    <contour>
      <point x="50" y="180" type="line"/>
      <point x="50" y="40"/>
      <point x="110" y="-10"/>
      <point x="250" y="-10" type="curve" smooth="yes"/>
      <point x="380" y="-10"/>
      <point x="450" y="50"/>
      <point x="450" y="190" type="curve"/>
      <point x="450" y="700" type="line"/>
      <point x="300" y="700" type="line"/>
      <point x="300" y="190" type="line" smooth="yes"/>
      <point x="300" y="150"/>
      <point x="280" y="140"/>
      <point x="250" y="140" type="curve" smooth="yes"/>
      <point x="220" y="140"/>
      <point x="200" y="150"/>
      <point x="200" y="185" type="curve"/>
      <point x="200" y="250" type="line"/>
      <point x="50" y="250" type="line"/>
    </contour>
  </outline>
</glyph>
<glyph name="M" format="1">
  <advance width="800"/>
  <unicode hex="004D"/>
  <outline>
    <contour>
      <point x="50" y="0" type="line"/>
      <point x="200" y="0" type="line"/>
      <point x="200" y="555" type="line"/>
      <point x="170" y="700" type="line"/>
      <point x="50" y="700" type="line"/>
    </contour>
    <contour>
      <point x="90" y="565" type="line"/>
      <point x="275" y="240" type="line" smooth="yes"/>
      <point x="320" y="160"/>
      <point x="325" y="140"/>
      <point x="325" y="50" type="curve" smooth="yes"/>
      <point x="325" y="0" type="line"/>
      <point x="475" y="0" type="line"/>
      <point x="475" y="65" type="line" smooth="yes"/>
      <point x="475" y="155"/>
      <point x="425" y="280"/>
      <point x="335" y="425" type="curve" smooth="yes"/>
      <point x="170" y="700" type="line"/>
    </contour>
    <contour>
      <point x="750" y="0" type="line"/>
      <point x="750" y="700" type="line"/>
      <point x="630" y="700" type="line"/>
      <point x="600" y="555" type="line"/>
      <point x="600" y="0" type="line"/>
    </contour>
    <contour>
      <point x="710" y="565" type="line"/>
      <point x="630" y="700" type="line"/>
      <point x="465" y="425" type="line" smooth="yes"/>
      <point x="375" y="280"/>
      <point x="325" y="155"/>
      <point x="325" y="65" type="curve" smooth="yes"/>
      <point x="325" y="0" type="line"/>
      <point x="475" y="0" type="line"/>
      <point x="475" y="50" type="line" smooth="yes"/>
      <point x="475" y="140"/>
      <point x="480" y="160"/>
      <point x="525" y="240" type="curve" smooth="yes"/>
    </contour>
  </outline>
</glyph>
<glyph name="Q" format="1">
  <advance width="600"/>
  <unicode hex="0051"/>
  <outline>
    <contour>
      <point x="225" y="-50" type="line"/>
      <point x="375" y="-50" type="line"/>
      <point x="350" y="250" type="line"/>
      <point x="250" y="250" type="line"/>
    </contour>
    <contour>
      <point x="270" y="0" type="curve" smooth="yes"/>
      <point x="300" y="0" type="line"/>
      <point x="300" y="140" type="line"/>
      <point x="220" y="140"/>
      <point x="200" y="160"/>
      <point x="200" y="230" type="curve" smooth="yes"/>
      <point x="200" y="350" type="line"/>
      <point x="50" y="350" type="line"/>
      <point x="50" y="245" type="line"/>
      <point x="50" y="70"/>
      <point x="130" y="0"/>
    </contour>
    <contour>
      <point x="270" y="700" type="line" smooth="yes"/>
      <point x="130" y="700"/>
      <point x="50" y="630"/>
      <point x="50" y="455" type="curve"/>
      <point x="50" y="350" type="line"/>
      <point x="200" y="350" type="line"/>
      <point x="200" y="460" type="line" smooth="yes"/>
      <point x="200" y="530"/>
      <point x="220" y="550"/>
      <point x="300" y="550" type="curve"/>
      <point x="300" y="700" type="line"/>
    </contour>
    <contour>
      <point x="330" y="0" type="line" smooth="yes"/>
      <point x="470" y="0"/>
      <point x="550" y="70"/>
      <point x="550" y="245" type="curve"/>
      <point x="550" y="350" type="line"/>
      <point x="400" y="350" type="line"/>
      <point x="400" y="230" type="line" smooth="yes"/>
      <point x="400" y="160"/>
      <point x="380" y="140"/>
      <point x="300" y="140" type="curve"/>
      <point x="300" y="0" type="line"/>
    </contour>
    <contour>
      <point x="330" y="700" type="curve" smooth="yes"/>
      <point x="300" y="700" type="line"/>
      <point x="300" y="550" type="line"/>
      <point x="380" y="550"/>
      <point x="400" y="530"/>
      <point x="400" y="460" type="curve" smooth="yes"/>
      <point x="400" y="350" type="line"/>
      <point x="550" y="350" type="line"/>
      <point x="550" y="455" type="line"/>
      <point x="550" y="630"/>
      <point x="470" y="700"/>
    </contour>
    <contour>
      <point x="300" y="650" type="move" name="top"/>
    </contour>
  </outline>
</glyph>
<glyph name="R" format="1">
  <advance width="600"/>
  <unicode hex="0052"/>
  <outline>
    <contour>
      <point x="365" y="700" type="curve" smooth="yes"/>
      <point x="110" y="700" type="line"/>
      <point x="110" y="550" type="line"/>
      <point x="350" y="550" type="line"/>
      <point x="390" y="550"/>
      <point x="400" y="535"/>
      <point x="400" y="500" type="curve"/>
      <point x="550" y="500" type="line"/>
      <point x="550" y="625"/>
      <point x="480" y="700"/>
    </contour>
    <contour>
      <point x="350.0" y="450.0" type="curve"/>
      <point x="130.0" y="450.0" type="line"/>
      <point x="100" y="300" type="line"/>
      <point x="345" y="300" type="line"/>
      <point x="400" y="335" type="line"/>
      <point x="480" y="335"/>
      <point x="550" y="390"/>
      <point x="550.0" y="500.0" type="curve"/>
      <point x="400.0" y="500.0" type="line"/>
      <point x="400.0" y="465.0"/>
      <point x="390.0" y="450.0"/>
    </contour>
    <contour>
      <point x="200" y="0" type="line"/>
      <point x="200" y="700" type="line"/>
      <point x="50" y="700" type="line"/>
      <point x="50" y="0" type="line"/>
    </contour>
    <contour>
      <point x="340" y="420" type="curve"/>
      <point x="300" y="450" type="line"/>
      <point x="300" y="300" type="line"/>
      <point x="290" y="300" type="line"/>
      <point x="370" y="300"/>
      <point x="380" y="290"/>
      <point x="390" y="200" type="curve" smooth="yes"/>
      <point x="410" y="0" type="line"/>
      <point x="560" y="0" type="line"/>
      <point x="540" y="200" type="line" smooth="yes"/>
      <point x="530" y="335"/>
      <point x="470" y="420"/>
    </contour>
  </outline>
</glyph>
<glyph name="grave" format="1">
  <advance width="200"/>
  <unicode hex="0060"/>
  <outline>
    <contour>
      <point x="180" y="550" type="line"/>
      <point x="140" y="700" type="line"/>
      <point x="5" y="700" type="line"/>
      <point x="5" y="625" type="line"/>
      <point x="75" y="550" type="line"/>
    </contour>
    <contour>
      <point x="122" y="500" type="move" name="_top"/>
    </contour>
  </outline>
</glyph>
<glyph name="m" format="1">
  <advance width="950"/>
  <unicode hex="006D"/>
  <outline>
    <contour>
      <point x="50" y="0" type="line"/>
      <point x="200" y="0" type="line"/>
      <point x="200" y="420" type="line"/>
      <point x="190" y="500" type="line"/>
      <point x="50" y="500" type="line"/>
    </contour>
    <contour>
      <point x="200" y="420" type="curve"/>
      <point x="200" y="260" type="line"/>
      <point x="200" y="325"/>
      <point x="225" y="360"/>
      <point x="300" y="360" type="curve" smooth="yes"/>
      <point x="370" y="360"/>
      <point x="400" y="330"/>
      <point x="400" y="260" type="curve"/>
      <point x="400" y="0" type="line"/>
      <point x="550" y="0" type="line"/>
      <point x="550" y="290" type="line"/>
      <point x="550" y="450"/>
      <point x="490" y="510"/>
      <point x="360" y="510" type="curve"/>
      <point x="265" y="510"/>
      <point x="210" y="475"/>
    </contour>
    <contour>
      <point x="515" y="410" type="curve"/>
      <point x="550" y="260" type="line"/>
      <point x="550" y="325"/>
      <point x="575" y="360"/>
      <point x="650" y="360" type="curve" smooth="yes"/>
      <point x="720" y="360"/>
      <point x="750" y="330"/>
      <point x="750" y="260" type="curve"/>
      <point x="750" y="0" type="line"/>
      <point x="900" y="0" type="line"/>
      <point x="900" y="290" type="line"/>
      <point x="900" y="450"/>
      <point x="840" y="510"/>
      <point x="710" y="510" type="curve"/>
      <point x="605" y="510"/>
      <point x="550" y="475"/>
    </contour>
  </outline>
</glyph>
<glyph name="q" format="1">
  <advance width="550"/>
  <unicode hex="0071"/>
  <outline>
    <contour>
      <point x="525" y="500" type="line"/>
      <point x="350" y="500" type="line"/>
      <point x="325" y="420" type="line"/>
      <point x="325" y="-200" type="line"/>
      <point x="525" y="-200" type="line"/>
    </contour>
    <contour>
      <point x="325" y="420" type="line"/>
      <point x="305" y="485"/>
      <point x="260" y="510"/>
      <point x="180" y="510" type="curve"/>
      <point x="85" y="510"/>
      <point x="25" y="440"/>
      <point x="25" y="290" type="curve"/>
      <point x="25" y="250" type="line"/>
      <point x="225" y="250" type="line"/>
      <point x="225" y="260" type="line"/>
      <point x="225" y="290"/>
      <point x="240" y="310"/>
      <point x="275" y="310" type="curve" smooth="yes"/>
      <point x="310" y="310"/>
      <point x="325" y="290"/>
      <point x="325" y="260" type="curve"/>
    </contour>
    <contour>
      <point x="260" y="-10"/>
      <point x="305" y="15"/>
      <point x="325" y="80" type="curve"/>
      <point x="325" y="240" type="line"/>
      <point x="325" y="210"/>
      <point x="310" y="190"/>
      <point x="275" y="190" type="curve" smooth="yes"/>
      <point x="240" y="190"/>
      <point x="225" y="210"/>
      <point x="225" y="240" type="curve"/>
      <point x="225" y="250" type="line"/>
      <point x="25" y="250" type="line"/>
      <point x="25" y="210" type="line"/>
      <point x="25" y="60"/>
      <point x="85" y="-10"/>
      <point x="180" y="-10" type="curve"/>
    </contour>
  </outline>
</glyph>
<glyph name="t" format="1">
  <advance width="400"/>
  <unicode hex="0074"/>
  <outline>
    <contour>
      <point x="360" y="150" type="line"/>
      <point x="250" y="150" type="line"/>
      <point x="220" y="150"/>
      <point x="200" y="160"/>
      <point x="200" y="200" type="curve"/>
      <point x="200" y="350" type="line"/>
      <point x="360" y="350" type="line"/>
      <point x="360" y="500" type="line"/>
      <point x="200" y="500" type="line"/>
      <point x="200" y="600" type="line"/>
      <point x="80" y="600" type="line"/>
      <point x="50" y="491" type="line"/>
      <point x="50" y="150" type="line"/>
      <point x="50" y="50"/>
      <point x="100" y="0"/>
      <point x="200" y="0" type="curve"/>
      <point x="360" y="0" type="line"/>
    </contour>
  </outline>
</glyph>
<glyph name="v" format="1">
  <advance width="600"/>
  <unicode hex="0076"/>
  <outline>
    <contour>
      <point x="250" y="0" type="curve"/>
      <point x="390" y="75" type="line"/>
      <point x="240" y="175"/>
      <point x="200" y="250"/>
      <point x="200" y="400" type="curve" smooth="yes"/>
      <point x="200" y="500" type="line"/>
      <point x="50" y="500" type="line"/>
      <point x="50" y="400" type="line" smooth="yes"/>
      <point x="50" y="250"/>
      <point x="90" y="100"/>
    </contour>
    <contour>
      <point x="350" y="0" type="line"/>
      <point x="510" y="100"/>
      <point x="550" y="250"/>
      <point x="550" y="400" type="curve" smooth="yes"/>
      <point x="550" y="500" type="line"/>
      <point x="400" y="500" type="line"/>
      <point x="400" y="400" type="line" smooth="yes"/>
      <point x="400" y="250"/>
      <point x="360" y="175"/>
      <point x="210" y="75" type="curve"/>
      <point x="250" y="0" type="line"/>
    </contour>
  </outline>
</glyph>
<glyph name="z" format="1">
  <advance width="600"/>
  <unicode hex="007A"/>
  <outline>
    <contour>
      <point x="550" y="0" type="line"/>
      <point x="550" y="150" type="line"/>
      <point x="400" y="150" type="line"/>
      <point x="280" y="135" type="line"/>
      <point x="550" y="360" type="line"/>
      <point x="550" y="500" type="line"/>
      <point x="50" y="500" type="line"/>
      <point x="50" y="350" type="line"/>
      <point x="200" y="350" type="line"/>
      <point x="320" y="365" type="line"/>
      <point x="50" y="135" type="line"/>
      <point x="50" y="0" type="line"/>
    </contour>
  </outline>
</glyph>
<glyph name="acute" format="1">
  <advance width="200"/>
  <unicode hex="00B4"/>
  <outline>
    <contour>
      <point x="20" y="550" type="line"/>
      <point x="125" y="550" type="line"/>
      <point x="195" y="625" type="line"/>
      <point x="195" y="700" type="line"/>
      <point x="60" y="700" type="line"/>
    </contour>
    <contour>
      <point x="68" y="500" type="move" name="_top"/>
    </contour>
  </outline>
</glyph>
<glyph name="quotedblleft" format="1">
  <advance width="450"/>
  <unicode hex="201C"/>
  <outline>
    <contour>
      <point x="200" y="550" type="line"/>
      <point x="200" y="700" type="line"/>
      <point x="50" y="700" type="line"/>
      <point x="50" y="600" type="line"/>
      <point x="95" y="450" type="line"/>
      <point x="170" y="450" type="line"/>
      <point x="170" y="550" type="line"/>
    </contour>
    <contour>
      <point x="400" y="550" type="line"/>
      <point x="400" y="700" type="line"/>
      <point x="250" y="700" type="line"/>
      <point x="250" y="600" type="line"/>
      <point x="295" y="450" type="line"/>
      <point x="370" y="450" type="line"/>
      <point x="370" y="550" type="line"/>
    </contour>
  </outline>
</glyph>
<glyph name="quotedblright" format="1">
  <advance width="450"/>
  <unicode hex="201D"/>
  <outline>
    <contour>
      <point x="250" y="550" type="line"/>
      <point x="280" y="550" type="line"/>
      <point x="280" y="450" type="line"/>
      <point x="355" y="450" type="line"/>
      <point x="400" y="600" type="line"/>
      <point x="400" y="700" type="line"/>
      <point x="250" y="700" type="line"/>
    </contour>
    <contour>
      <point x="50" y="550" type="line"/>
      <point x="80" y="550" type="line"/>
      <point x="80" y="450" type="line"/>
      <point x="155" y="450" type="line"/>
      <point x="200" y="600" type="line"/>
      <point x="200" y="700" type="line"/>
      <point x="50" y="700" type="line"/>
    </contour>
  </outline>
</glyph>
<glyph name="fi" format="1">
  <advance width="600"/>
  <outline>
    <contour>
      <point x="30" y="175" type="line"/>
      <point x="350" y="175" type="line"/>
      <point x="350" y="325" type="line"/>
      <point x="30" y="325" type="line"/>
    </contour>
    <contour>
      <point x="350" y="700" type="line"/>
      <point x="200" y="700" type="line"/>
      <point x="110" y="700"/>
      <point x="50" y="640"/>
      <point x="50" y="550" type="curve"/>
      <point x="50" y="0" type="line"/>
      <point x="200" y="0" type="line"/>
      <point x="200" y="500" type="line" smooth="yes"/>
      <point x="200" y="540"/>
      <point x="220" y="550"/>
      <point x="250" y="550" type="curve"/>
      <point x="350" y="550" type="line"/>
    </contour>
    <contour>
      <point x="400" y="0" type="line"/>
      <point x="550" y="0" type="line"/>
      <point x="550" y="500" type="line"/>
      <point x="400" y="500" type="line"/>
    </contour>
    <contour>
      <point x="400" y="550" type="line"/>
      <point x="550" y="550" type="line"/>
      <point x="550" y="700" type="line"/>
      <point x="400" y="700" type="line"/>
    </contour>
  </outline>
</glyph>
<glyph name="g.alt" format="1">
  <advance width="600"/>
  <outline>
    <contour>
      <point x="550" y="0" type="line"/>
      <point x="550" y="500" type="line"/>
      <point x="410" y="500" type="line"/>
      <point x="400" y="420" type="line"/>
      <point x="400" y="80" type="line"/>
    </contour>
    <contour>
      <point x="400" y="50" type="curve"/>
      <point x="400" y="240" type="line"/>
      <point x="400" y="160"/>
      <point x="380" y="140"/>
      <point x="300" y="140" type="curve" smooth="yes"/>
      <point x="240" y="140"/>
      <point x="200" y="170"/>
      <point x="200" y="240" type="curve"/>
      <point x="200" y="250" type="line"/>
      <point x="50" y="250" type="line"/>
      <point x="50" y="210" type="line"/>
      <point x="50" y="100"/>
      <point x="150" y="30"/>
      <point x="270" y="30" type="curve"/>
      <point x="325" y="30"/>
      <point x="380" y="35"/>
    </contour>
    <contour>
      <point x="380" y="475"/>
      <point x="335" y="510"/>
      <point x="240" y="510" type="curve"/>
      <point x="120" y="510"/>
      <point x="50" y="440"/>
      <point x="50" y="290" type="curve"/>
      <point x="50" y="250" type="line"/>
      <point x="200" y="250" type="line"/>
      <point x="200" y="260" type="line"/>
      <point x="200" y="330"/>
      <point x="240" y="360"/>
      <point x="300" y="360" type="curve" smooth="yes"/>
      <point x="380" y="360"/>
      <point x="400" y="330"/>
      <point x="400" y="260" type="curve"/>
      <point x="400" y="420" type="line"/>
    </contour>
    <contour>
      <point x="40" y="-35" type="curve" smooth="yes"/>
      <point x="40" y="-165"/>
      <point x="100" y="-210"/>
      <point x="300" y="-210" type="curve" smooth="yes"/>
      <point x="480" y="-210"/>
      <point x="550" y="-140"/>
      <point x="550" y="-10" type="curve"/>
      <point x="550" y="50" type="line"/>
      <point x="400" y="90" type="line"/>
      <point x="400" y="-10" type="line" smooth="yes"/>
      <point x="400" y="-50"/>
      <point x="380" y="-60"/>
      <point x="300" y="-60" type="curve" smooth="yes"/>
      <point x="205" y="-60"/>
      <point x="190" y="-51"/>
      <point x="190" y="-21" type="curve" smooth="yes"/>
      <point x="190" y="9"/>
      <point x="211" y="30"/>
      <point x="270" y="30" type="curve"/>
      <point x="124" y="98" type="line"/>
      <point x="91" y="94"/>
      <point x="40" y="44"/>
    </contour>
    <contour>
      <point x="300.0" y="300.0" type="move" name="top"/>
    </contour>
    <contour>
      <point x="900.0" y="500.0" type="move" name="top"/>
    </contour>
  </outline>
</glyph>
<glyph name="j.alt" format="1">
  <advance width="250"/>
  <outline>
    <contour>
      <point x="0" y="-200" type="line"/>
      <point x="130" y="-200"/>
      <point x="200" y="-140"/>
      <point x="200" y="-25" type="curve" smooth="yes"/>
      <point x="200" y="500" type="line"/>
      <point x="50" y="500" type="line"/>
      <point x="50" y="-25" type="line" smooth="yes"/>
      <point x="50" y="-65"/>
      <point x="30" y="-75"/>
      <point x="0" y="-75" type="curve"/>
      <point x="-20" y="-75" type="line"/>
      <point x="-20" y="-200" type="line"/>
    </contour>
    <contour>
      <point x="50" y="550" type="line"/>
      <point x="200" y="550" type="line"/>
      <point x="200" y="700" type="line"/>
      <point x="50" y="700" type="line"/>
    </contour>
  </outline>
</glyph>
<glyph name="seven.sup" format="1">
  <advance width="400"/>
  <outline>
    <contour>
      <point x="50" y="700" type="line"/>
      <point x="50" y="610" type="line"/>
      <point x="205" y="610" type="line"/>
      <point x="240" y="620" type="line"/>
      <point x="245" y="610" type="line"/>
      <point x="215" y="585" type="line"/>
      <point x="80" y="415" type="line" smooth="yes"/>
      <point x="80" y="400" type="line"/>
      <point x="185" y="400" type="line"/>
      <point x="360" y="630" type="line"/>
      <point x="360" y="700" type="line"/>
    </contour>
  </outline>
</glyph>
